<svg width="175" height="38" viewBox="0 0 175 38" fill="none" xmlns="http://www.w3.org/2000/svg">
<path d="M168.956 9.08377C164.202 5.61581 158.458 4.00311 125.523 1.72923C120.059 1.35274 110.521 0.767412 97.6545 0.311323C93.8044 0.175527 88.9055 0.0153809 87.2038 0.0153809C85.5049 0.0153809 80.6032 0.175527 76.755 0.311323C63.8871 0.766476 54.3495 1.35274 48.8867 1.72923C15.9528 4.00311 10.2081 5.61581 5.4534 9.08377C2.39751 11.3118 0 15.8951 0 20.7988C0 26.418 3.06806 31.4012 7.82094 33.6508C14.2633 36.6973 18.1714 36.8968 87.2019 37.0007C156.235 37.1037 160.145 36.6973 166.587 33.6508C171.34 31.4012 174.407 26.4189 174.407 20.7988C174.408 15.8951 172.011 11.3118 168.956 9.08377ZM165.514 32.3349C158.706 35.3712 155.976 35.3815 87.2019 35.3815C18.4327 35.3815 15.6999 35.373 8.8942 32.3349C4.53841 30.3926 1.63986 25.8879 1.63986 20.7997C1.63986 16.9712 3.33404 12.7409 6.37588 10.4193C11.0482 6.85765 17.5655 5.44724 48.573 3.40093C54.9386 2.9823 64.5764 2.35014 76.459 1.92496C79.1628 1.82943 85.5883 1.65149 87.2029 1.65149C88.8184 1.65149 95.2448 1.82756 97.9504 1.92496C109.836 2.35014 119.473 2.98043 125.836 3.40093C156.844 5.44724 163.361 6.85765 168.03 10.4193C171.073 12.7409 172.765 16.9712 172.765 20.7997C172.765 25.8869 169.87 30.3935 165.514 32.3349Z" fill="white"/>
</svg>
