<svg width="115" height="23" viewBox="0 0 115 23" fill="none" xmlns="http://www.w3.org/2000/svg">
<path fill-rule="evenodd" clip-rule="evenodd" d="M5.87085 5.65484V9.87405H23.0594V14.3821H5.87085V22.3948H0.245239V0.759033H24.0021V5.65484H5.87085Z" fill="white"/>
<path fill-rule="evenodd" clip-rule="evenodd" d="M114.111 17.5218C113.883 18.7762 113.305 19.8785 112.423 20.6995C110.515 22.4785 107.618 22.5469 100.48 22.5469C91.7754 22.5469 89.4795 22.4785 87.5334 20.5019C86.1346 19.0727 85.8457 17.5446 85.8457 12.1623C85.8457 10.9612 85.8457 9.76761 85.8761 8.52846C85.9749 5.25952 86.4615 3.59464 87.7234 2.35549C89.3199 0.873063 91.5245 0.485352 99.2788 0.485352C100.244 0.485352 102.168 0.508158 105.049 0.576578C109.101 0.644997 110.5 0.873063 112.05 1.84614C113.905 2.98647 114.422 4.99344 114.422 11.0828C114.43 14.2757 114.316 16.2827 114.111 17.5218ZM107.816 5.92851C107.063 5.32034 104.023 5.25952 100.115 5.25952C97.4314 5.25952 95.1584 5.32034 93.9572 5.41917C93.3034 5.47238 92.7561 5.63203 92.376 5.92851C91.6842 6.46066 91.593 7.22848 91.593 11.2576C91.593 12.0331 91.593 12.8161 91.631 13.5839C91.6614 15.6061 91.783 16.3815 92.2011 16.8604C92.4748 17.1949 92.9841 17.4154 93.6075 17.5218C94.8771 17.7423 97.5303 17.8715 100.488 17.8715C104.996 17.8715 107.208 17.8715 107.983 17.0277C108.523 16.4119 108.667 15.4084 108.667 11.1664C108.66 9.82843 108.819 6.77996 107.816 5.92851Z" fill="white"/>
<path fill-rule="evenodd" clip-rule="evenodd" d="M80.9196 20.9732C79.8857 22.1135 78.6389 22.4404 76.1454 22.4404H56.9043V17.6359H74.3057C75.3396 17.6359 75.7577 17.6359 76.1758 17.3774C76.5407 17.1493 76.67 16.754 76.67 15.6137C76.67 14.7166 76.5711 14.4201 76.2138 14.1237C75.8945 13.8652 75.5981 13.7968 74.4881 13.7968H63.5258C60.599 13.7968 59.6335 13.5763 58.4247 12.626C57.2312 11.691 56.7675 10.0945 56.7675 6.85597C56.7675 4.63613 57.0259 3.54902 57.7785 2.47711C58.1282 1.99057 58.6224 1.59526 59.2002 1.33679C60.3101 0.850246 60.827 0.789429 63.4194 0.789429H81.5202V5.45717H64.5977C62.8112 5.45717 62.4539 5.74605 62.4539 7.3045C62.4539 8.7033 62.91 9.0606 64.5293 9.0606H75.8489C79.1407 9.0606 80.988 9.94245 81.8242 11.8734C82.25 12.8465 82.4096 13.9564 82.4096 15.8646C82.4096 18.4493 82.0219 19.7721 80.9196 20.9732Z" fill="white"/>
<path fill-rule="evenodd" clip-rule="evenodd" d="M51.3547 20.6008C50.1612 22.22 48.3442 22.8434 44.3531 22.8814L40.7268 22.9042L36.2188 22.8814C31.9919 22.8434 30.175 22.1592 28.8522 20.2663C28.0388 19.1336 27.7119 17.6815 27.7119 15.1196V0.994751H33.3603V14.5646C33.3603 17.4535 33.9457 17.902 37.4199 17.9324L40.438 17.9704L43.3876 17.902C46.5957 17.8336 47.0214 17.4155 47.0214 13.9413V0.994751H52.7307V13.9109C52.7231 17.8412 52.4266 19.1336 51.3547 20.6008Z" fill="white"/>
</svg>
