<svg width="64" height="65" viewBox="0 0 64 65" fill="none" xmlns="http://www.w3.org/2000/svg">
<path fill-rule="evenodd" clip-rule="evenodd" d="M32.0637 64.1121C14.4319 64.105 0.141602 49.9664 0.141602 32.5323C0.141602 15.091 14.439 0.952418 32.0637 0.959475C49.7131 0.959475 63.9999 15.0981 63.9999 32.5323C63.9999 49.9735 49.7025 64.1121 32.0637 64.1121ZM5.88243 47.68L6.45404 47.2354C4.80271 44.2115 4.16759 42.1932 3.44425 39.9562C3.38074 39.7903 3.34193 39.6774 3.27136 39.5821C3.22549 39.7092 3.24666 39.8221 3.25724 39.9632C3.71242 42.4085 4.82389 45.4888 5.88243 47.68ZM32.5083 4.09629L36.8518 29.3496L32.3107 32.01L32.159 4.10335C32.159 3.76814 31.9367 3.76814 31.8908 4.10335L29.3256 30.5704L27.4202 29.466L31.4991 4.10335C15.6845 4.19861 3.19726 16.8941 3.19726 32.5781C3.19726 37.5321 4.75332 42.7401 6.99037 46.7979L26.9157 30.2282L28.8281 31.322L6.45757 47.3977C5.91771 47.7788 6.07649 47.9623 6.67281 47.6376L31.6544 33.2062V38.3966L7.53022 47.6059C12.5795 55.8555 21.5347 61.1094 31.9825 61.1094C42.4057 61.1094 51.5126 55.8449 56.5619 47.613L32.4765 38.4107V33.2238L56.5054 47.0837C57.0523 47.3836 57.2111 47.2178 56.696 46.8543L35.3028 31.3326L37.2153 30.2352L57.1264 46.819C59.4129 42.7401 60.9196 37.5215 60.9196 32.5287C60.9196 17.0423 48.0442 4.51618 32.5083 4.09629ZM62.4686 26.8161C62.525 26.9679 62.5709 27.0949 62.6415 27.1796C62.6873 27.0525 62.6485 26.9432 62.6415 26.7985C60.0127 12.4447 47.5643 1.72163 32.1237 1.72163C14.8412 1.72163 0.86141 15.7332 0.86141 33.0086C0.86141 37.0875 1.90231 40.9794 3.3137 44.5432C3.96647 46.1875 6.04474 49.9347 6.55284 50.6721C6.66222 50.8309 6.71162 50.9085 6.83864 51.0038C6.83159 50.8521 6.82453 50.7815 6.74337 50.598C6.65516 50.4463 4.88387 47.0731 3.86061 44.5644C2.99261 42.4085 1.90584 38.1037 1.90584 33.118C1.90584 16.3613 15.5046 2.76253 32.2613 2.76253C41.026 2.76958 49.265 7.04962 54.3143 12.5893C58.1497 16.7988 60.1327 19.6251 62.4686 26.8161ZM6.86687 47.8529L6.17529 48.1069C10.66 56.6811 20.0669 62.9124 32.0637 62.9124C49.0851 62.9195 62.6908 49.1478 62.6908 32.5323C62.6908 28.4675 61.5159 25.9764 60.856 24.1733C60.3726 22.8219 59.3317 20.7507 58.873 19.9039C58.7778 19.738 58.7143 19.6674 58.5872 19.5616C58.5943 19.7133 58.6049 19.8015 58.6966 19.9674C59.053 20.6731 59.8469 22.4514 60.4115 24.2368C61.1736 26.6115 61.65 29.2684 61.65 32.5323C61.65 37.7156 60.0233 43.0189 57.624 47.2425C57.758 47.5918 57.631 47.7682 57.2252 47.8776C51.9925 56.293 42.6668 61.8009 32.0531 61.7939C22.0816 61.7939 14.1108 56.4518 11.595 53.6819C9.54851 51.4272 8.03127 49.7512 6.86687 47.8529ZM30.4829 31.2444L31.7991 32.0136L31.9649 11.5237C31.9649 11.1109 31.8379 11.0933 31.8061 11.5096L30.4829 31.2444ZM32.787 32.7934L50.5141 43.1706C50.8316 43.3541 50.8952 43.2412 50.5952 43.0436L34.1349 32.0171L32.787 32.7934ZM30.0878 32.0806L25.6313 35.722C25.3843 35.9302 25.4972 36.0219 25.7901 35.8561L31.3474 32.7757L30.0878 32.0806Z" fill="white"/>
</svg>
