<svg width="84" height="37" viewBox="0 0 84 37" fill="none" xmlns="http://www.w3.org/2000/svg">
<path fill-rule="evenodd" clip-rule="evenodd" d="M83.6332 0.0412598H67.5872C67.5872 0.0412598 59.0109 18.9858 58.8914 19.231C58.6462 19.231 57.6653 19.231 57.5459 19.231C57.4956 19.1367 56.2381 16.1501 54.729 12.5662C54.3518 12.8428 53.9368 13.1446 53.5029 13.4527L56.4455 20.7086H59.7528L68.4486 1.51885H81.552L65.9964 34.4848H48.1082L43.82 24.2737H40.8774L36.5893 34.4848H18.7136L3.15804 1.51885H16.142L24.8377 20.7086H28.2645L31.2071 13.4527C30.7858 13.1509 30.3771 12.8554 30.0061 12.5788C28.516 16.1564 27.2899 19.1367 27.2899 19.231C27.0447 19.231 26.0638 19.231 25.8186 19.231C25.8186 18.9858 17.1228 0.0412598 17.1228 0.0412598H0.712158L17.8585 36.0818H37.5764C37.5764 36.0818 41.7388 26.116 41.8646 25.8708C42.1098 25.8708 42.6002 25.8708 42.8454 25.8708C42.9712 26.116 47.1336 36.0818 47.1336 36.0818H66.9773L83.9978 0.0412598H83.6332Z" fill="white"/>
</svg>
